<svg height="512pt" viewBox="0 -106 512 512" width="512pt" xmlns="http://www.w3.org/2000/svg"><path d="m122.210938 161.132812c-.785157 27.996094 6.695312 55.191407 22.433593 78.75 24.621094 36.851563 65.410157 59.015626 109.523438 59.941407 6.121093.109375 12.117187.175781 17.832031.175781 18.152344 0 35.863281-.589844 53.234375-1.457031-27.875-20.179688-49.207031-48.753907-60.179687-82.480469-7.011719-21.5625-9.449219-43.738281-7.515626-65.921875-41.042968.589844-90.648437 3.710937-135.328124 10.992187zm0 0"/><path d="m422 161.480469c-39.144531-6.566407-85.28125-10.507813-134.152344-11.21875-2.027344 19.109375-.234375 38.140625 5.746094 56.53125 13.65625 42.007812 46.855469 74.386719 89.003906 87.226562 13.808594-1.546875 26.910156-3.402343 39.402344-5.5zm0 0"/><path d="m452 167.324219v115.351562c19.949219-4.519531 37.472656-9.726562 51.035156-15.691406l8.964844-3.941406v-76.082031l-8.964844-3.941407c-13.5625-5.96875-31.085937-11.175781-51.035156-15.695312zm0 0"/><path d="m119.699219 256.539062c-18.039063-27.007812-27.042969-57.847656-27.378907-89.609374-51.414062 11.480468-92.320312 29.777343-92.320312 58.070312 0 38.828125 75.03125 58.910156 153.5625 68.1875-12.847656-10.378906-24.417969-22.511719-33.863281-36.648438zm0 0"/><path d="m467 30h-45c0-16.570312-13.429688-30-30-30h-120c-16.570312 0-30 13.429688-30 30s13.429688 30 30 30h60c0 16.570312 13.429688 30 30 30h150v-15c0-24.851562-20.148438-45-45-45zm0 0"/></svg>